<svg xmlns="http://www.w3.org/2000/svg" viewBox="0 0 1024 1024" width="1024" height="1024">
  <!-- Neutral dark background, square corners -->
  <rect x="0" y="0" width="1024" height="1024" fill="#1A1918"/>

  <!-- Apple on top, centered -->
  <g transform="translate(512 320)">
    <ellipse cx="-38" cy="0" rx="80" ry="88" fill="#D8C7B5"/>
    <ellipse cx="38" cy="0" rx="80" ry="88" fill="#D8C7B5"/>
    <rect x="-8" y="-100" width="16" height="32" rx="6" fill="#5175C3"/>
    <path d="M 10 -92 Q 62 -118 72 -68 Q 42 -80 10 -74 Z" fill="#5175C3"/>
  </g>

  <!-- Barcode bars below apple -->
  <g fill="#D8C7B5">
    <rect x="248" y="480" width="40"  height="280"/>
    <rect x="308" y="480" width="20"  height="280"/>
    <rect x="348" y="480" width="60"  height="280"/>
    <rect x="428" y="480" width="28"  height="280"/>
    <rect x="476" y="480" width="16"  height="280"/>
    <rect x="512" y="480" width="48"  height="280"/>
    <rect x="580" y="480" width="24"  height="280"/>
    <rect x="624" y="480" width="40"  height="280"/>
    <rect x="684" y="480" width="16"  height="280"/>
    <rect x="720" y="480" width="56"  height="280"/>
  </g>
</svg>
